# vtk DataFile Version 3.0
# correlation data
ASCII
DATASET STRUCTURED_GRID
DIMENSIONS 30 27 1
POINTS 810 double
0.0000 0.0000 0.0000 2.5150 0.0000 0.0000 5.0300 0.0000 0.0000
7.5450 0.0000 0.0000 10.0600 0.0000 0.0000 12.5750 0.0000 0.0000
15.0900 0.0000 0.0000 17.6050 0.0000 0.0000 20.1200 0.0000 0.0000
22.6350 0.0000 0.0000 25.1500 0.0000 0.0000 27.6650 0.0000 0.0000
30.1800 0.0000 0.0000 32.6950 0.0000 0.0000 35.2100 0.0000 0.0000
37.7250 0.0000 0.0000 40.2400 0.0000 0.0000 42.7550 0.0000 0.0000
45.2700 0.0000 0.0000 47.7850 0.0000 0.0000 50.3000 0.0000 0.0000
52.8150 0.0000 0.0000 55.3300 0.0000 0.0000 57.8450 0.0000 0.0000
60.3600 0.0000 0.0000 62.8750 0.0000 0.0000 65.3900 0.0000 0.0000
67.9050 0.0000 0.0000 70.4200 0.0000 0.0000 72.9350 0.0000 0.0000
1.2575 2.1781 0.0000 3.7725 2.1781 0.0000 6.2875 2.1781 0.0000
8.8025 2.1781 0.0000 11.3175 2.1781 0.0000 13.8325 2.1781 0.0000
16.3475 2.1781 0.0000 18.8625 2.1781 0.0000 21.3775 2.1781 0.0000
23.8925 2.1781 0.0000 26.4075 2.1781 0.0000 28.9225 2.1781 0.0000
31.4375 2.1781 0.0000 33.9525 2.1781 0.0000 36.4675 2.1781 0.0000
38.9825 2.1781 0.0000 41.4975 2.1781 0.0000 44.0125 2.1781 0.0000
46.5275 2.1781 0.0000 49.0425 2.1781 0.0000 51.5575 2.1781 0.0000
54.0725 2.1781 0.0000 56.5875 2.1781 0.0000 59.1025 2.1781 0.0000
61.6175 2.1781 0.0000 64.1325 2.1781 0.0000 66.6475 2.1781 0.0000
69.1625 2.1781 0.0000 71.6775 2.1781 0.0000 74.1925 2.1781 0.0000
2.5150 4.3561 0.0000 5.0300 4.3561 0.0000 7.5450 4.3561 0.0000
10.0600 4.3561 0.0000 12.5750 4.3561 0.0000 15.0900 4.3561 0.0000
17.6050 4.3561 0.0000 20.1200 4.3561 0.0000 22.6350 4.3561 0.0000
25.1500 4.3561 0.0000 27.6650 4.3561 0.0000 30.1800 4.3561 0.0000
32.6950 4.3561 0.0000 35.2100 4.3561 0.0000 37.7250 4.3561 0.0000
40.2400 4.3561 0.0000 42.7550 4.3561 0.0000 45.2700 4.3561 0.0000
47.7850 4.3561 0.0000 50.3000 4.3561 0.0000 52.8150 4.3561 0.0000
55.3300 4.3561 0.0000 57.8450 4.3561 0.0000 60.3600 4.3561 0.0000
62.8750 4.3561 0.0000 65.3900 4.3561 0.0000 67.9050 4.3561 0.0000
70.4200 4.3561 0.0000 72.9350 4.3561 0.0000 75.4500 4.3561 0.0000
3.7725 6.5342 0.0000 6.2875 6.5342 0.0000 8.8025 6.5342 0.0000
11.3175 6.5342 0.0000 13.8325 6.5342 0.0000 16.3475 6.5342 0.0000
18.8625 6.5342 0.0000 21.3775 6.5342 0.0000 23.8925 6.5342 0.0000
26.4075 6.5342 0.0000 28.9225 6.5342 0.0000 31.4375 6.5342 0.0000
33.9525 6.5342 0.0000 36.4675 6.5342 0.0000 38.9825 6.5342 0.0000
41.4975 6.5342 0.0000 44.0125 6.5342 0.0000 46.5275 6.5342 0.0000
49.0425 6.5342 0.0000 51.5575 6.5342 0.0000 54.0725 6.5342 0.0000
56.5875 6.5342 0.0000 59.1025 6.5342 0.0000 61.6175 6.5342 0.0000
64.1325 6.5342 0.0000 66.6475 6.5342 0.0000 69.1625 6.5342 0.0000
71.6775 6.5342 0.0000 74.1925 6.5342 0.0000 76.7075 6.5342 0.0000
5.0300 8.7122 0.0000 7.5450 8.7122 0.0000 10.0600 8.7122 0.0000
12.5750 8.7122 0.0000 15.0900 8.7122 0.0000 17.6050 8.7122 0.0000
20.1200 8.7122 0.0000 22.6350 8.7122 0.0000 25.1500 8.7122 0.0000
27.6650 8.7122 0.0000 30.1800 8.7122 0.0000 32.6950 8.7122 0.0000
35.2100 8.7122 0.0000 37.7250 8.7122 0.0000 40.2400 8.7122 0.0000
42.7550 8.7122 0.0000 45.2700 8.7122 0.0000 47.7850 8.7122 0.0000
50.3000 8.7122 0.0000 52.8150 8.7122 0.0000 55.3300 8.7122 0.0000
57.8450 8.7122 0.0000 60.3600 8.7122 0.0000 62.8750 8.7122 0.0000
65.3900 8.7122 0.0000 67.9050 8.7122 0.0000 70.4200 8.7122 0.0000
72.9350 8.7122 0.0000 75.4500 8.7122 0.0000 77.9650 8.7122 0.0000
6.2875 10.8903 0.0000 8.8025 10.8903 0.0000 11.3175 10.8903 0.0000
13.8325 10.8903 0.0000 16.3475 10.8903 0.0000 18.8625 10.8903 0.0000
21.3775 10.8903 0.0000 23.8925 10.8903 0.0000 26.4075 10.8903 0.0000
28.9225 10.8903 0.0000 31.4375 10.8903 0.0000 33.9525 10.8903 0.0000
36.4675 10.8903 0.0000 38.9825 10.8903 0.0000 41.4975 10.8903 0.0000
44.0125 10.8903 0.0000 46.5275 10.8903 0.0000 49.0425 10.8903 0.0000
51.5575 10.8903 0.0000 54.0725 10.8903 0.0000 56.5875 10.8903 0.0000
59.1025 10.8903 0.0000 61.6175 10.8903 0.0000 64.1325 10.8903 0.0000
66.6475 10.8903 0.0000 69.1625 10.8903 0.0000 71.6775 10.8903 0.0000
74.1925 10.8903 0.0000 76.7075 10.8903 0.0000 79.2225 10.8903 0.0000
7.5450 13.0683 0.0000 10.0600 13.0683 0.0000 12.5750 13.0683 0.0000
15.0900 13.0683 0.0000 17.6050 13.0683 0.0000 20.1200 13.0683 0.0000
22.6350 13.0683 0.0000 25.1500 13.0683 0.0000 27.6650 13.0683 0.0000
30.1800 13.0683 0.0000 32.6950 13.0683 0.0000 35.2100 13.0683 0.0000
37.7250 13.0683 0.0000 40.2400 13.0683 0.0000 42.7550 13.0683 0.0000
45.2700 13.0683 0.0000 47.7850 13.0683 0.0000 50.3000 13.0683 0.0000
52.8150 13.0683 0.0000 55.3300 13.0683 0.0000 57.8450 13.0683 0.0000
60.3600 13.0683 0.0000 62.8750 13.0683 0.0000 65.3900 13.0683 0.0000
67.9050 13.0683 0.0000 70.4200 13.0683 0.0000 72.9350 13.0683 0.0000
75.4500 13.0683 0.0000 77.9650 13.0683 0.0000 80.4800 13.0683 0.0000
8.8025 15.2464 0.0000 11.3175 15.2464 0.0000 13.8325 15.2464 0.0000
16.3475 15.2464 0.0000 18.8625 15.2464 0.0000 21.3775 15.2464 0.0000
23.8925 15.2464 0.0000 26.4075 15.2464 0.0000 28.9225 15.2464 0.0000
31.4375 15.2464 0.0000 33.9525 15.2464 0.0000 36.4675 15.2464 0.0000
38.9825 15.2464 0.0000 41.4975 15.2464 0.0000 44.0125 15.2464 0.0000
46.5275 15.2464 0.0000 49.0425 15.2464 0.0000 51.5575 15.2464 0.0000
54.0725 15.2464 0.0000 56.5875 15.2464 0.0000 59.1025 15.2464 0.0000
61.6175 15.2464 0.0000 64.1325 15.2464 0.0000 66.6475 15.2464 0.0000
69.1625 15.2464 0.0000 71.6775 15.2464 0.0000 74.1925 15.2464 0.0000
76.7075 15.2464 0.0000 79.2225 15.2464 0.0000 81.7375 15.2464 0.0000
10.0600 17.4244 0.0000 12.5750 17.4244 0.0000 15.0900 17.4244 0.0000
17.6050 17.4244 0.0000 20.1200 17.4244 0.0000 22.6350 17.4244 0.0000
25.1500 17.4244 0.0000 27.6650 17.4244 0.0000 30.1800 17.4244 0.0000
32.6950 17.4244 0.0000 35.2100 17.4244 0.0000 37.7250 17.4244 0.0000
40.2400 17.4244 0.0000 42.7550 17.4244 0.0000 45.2700 17.4244 0.0000
47.7850 17.4244 0.0000 50.3000 17.4244 0.0000 52.8150 17.4244 0.0000
55.3300 17.4244 0.0000 57.8450 17.4244 0.0000 60.3600 17.4244 0.0000
62.8750 17.4244 0.0000 65.3900 17.4244 0.0000 67.9050 17.4244 0.0000
70.4200 17.4244 0.0000 72.9350 17.4244 0.0000 75.4500 17.4244 0.0000
77.9650 17.4244 0.0000 80.4800 17.4244 0.0000 82.9950 17.4244 0.0000
11.3175 19.6025 0.0000 13.8325 19.6025 0.0000 16.3475 19.6025 0.0000
18.8625 19.6025 0.0000 21.3775 19.6025 0.0000 23.8925 19.6025 0.0000
26.4075 19.6025 0.0000 28.9225 19.6025 0.0000 31.4375 19.6025 0.0000
33.9525 19.6025 0.0000 36.4675 19.6025 0.0000 38.9825 19.6025 0.0000
41.4975 19.6025 0.0000 44.0125 19.6025 0.0000 46.5275 19.6025 0.0000
49.0425 19.6025 0.0000 51.5575 19.6025 0.0000 54.0725 19.6025 0.0000
56.5875 19.6025 0.0000 59.1025 19.6025 0.0000 61.6175 19.6025 0.0000
64.1325 19.6025 0.0000 66.6475 19.6025 0.0000 69.1625 19.6025 0.0000
71.6775 19.6025 0.0000 74.1925 19.6025 0.0000 76.7075 19.6025 0.0000
79.2225 19.6025 0.0000 81.7375 19.6025 0.0000 84.2525 19.6025 0.0000
12.5750 21.7805 0.0000 15.0900 21.7805 0.0000 17.6050 21.7805 0.0000
20.1200 21.7805 0.0000 22.6350 21.7805 0.0000 25.1500 21.7805 0.0000
27.6650 21.7805 0.0000 30.1800 21.7805 0.0000 32.6950 21.7805 0.0000
35.2100 21.7805 0.0000 37.7250 21.7805 0.0000 40.2400 21.7805 0.0000
42.7550 21.7805 0.0000 45.2700 21.7805 0.0000 47.7850 21.7805 0.0000
50.3000 21.7805 0.0000 52.8150 21.7805 0.0000 55.3300 21.7805 0.0000
57.8450 21.7805 0.0000 60.3600 21.7805 0.0000 62.8750 21.7805 0.0000
65.3900 21.7805 0.0000 67.9050 21.7805 0.0000 70.4200 21.7805 0.0000
72.9350 21.7805 0.0000 75.4500 21.7805 0.0000 77.9650 21.7805 0.0000
80.4800 21.7805 0.0000 82.9950 21.7805 0.0000 85.5100 21.7805 0.0000
13.8325 23.9586 0.0000 16.3475 23.9586 0.0000 18.8625 23.9586 0.0000
21.3775 23.9586 0.0000 23.8925 23.9586 0.0000 26.4075 23.9586 0.0000
28.9225 23.9586 0.0000 31.4375 23.9586 0.0000 33.9525 23.9586 0.0000
36.4675 23.9586 0.0000 38.9825 23.9586 0.0000 41.4975 23.9586 0.0000
44.0125 23.9586 0.0000 46.5275 23.9586 0.0000 49.0425 23.9586 0.0000
51.5575 23.9586 0.0000 54.0725 23.9586 0.0000 56.5875 23.9586 0.0000
59.1025 23.9586 0.0000 61.6175 23.9586 0.0000 64.1325 23.9586 0.0000
66.6475 23.9586 0.0000 69.1625 23.9586 0.0000 71.6775 23.9586 0.0000
74.1925 23.9586 0.0000 76.7075 23.9586 0.0000 79.2225 23.9586 0.0000
81.7375 23.9586 0.0000 84.2525 23.9586 0.0000 86.7675 23.9586 0.0000
15.0900 26.1366 0.0000 17.6050 26.1366 0.0000 20.1200 26.1366 0.0000
22.6350 26.1366 0.0000 25.1500 26.1366 0.0000 27.6650 26.1366 0.0000
30.1800 26.1366 0.0000 32.6950 26.1366 0.0000 35.2100 26.1366 0.0000
37.7250 26.1366 0.0000 40.2400 26.1366 0.0000 42.7550 26.1366 0.0000
45.2700 26.1366 0.0000 47.7850 26.1366 0.0000 50.3000 26.1366 0.0000
52.8150 26.1366 0.0000 55.3300 26.1366 0.0000 57.8450 26.1366 0.0000
60.3600 26.1366 0.0000 62.8750 26.1366 0.0000 65.3900 26.1366 0.0000
67.9050 26.1366 0.0000 70.4200 26.1366 0.0000 72.9350 26.1366 0.0000
75.4500 26.1366 0.0000 77.9650 26.1366 0.0000 80.4800 26.1366 0.0000
82.9950 26.1366 0.0000 85.5100 26.1366 0.0000 88.0250 26.1366 0.0000
16.3475 28.3147 0.0000 18.8625 28.3147 0.0000 21.3775 28.3147 0.0000
23.8925 28.3147 0.0000 26.4075 28.3147 0.0000 28.9225 28.3147 0.0000
31.4375 28.3147 0.0000 33.9525 28.3147 0.0000 36.4675 28.3147 0.0000
38.9825 28.3147 0.0000 41.4975 28.3147 0.0000 44.0125 28.3147 0.0000
46.5275 28.3147 0.0000 49.0425 28.3147 0.0000 51.5575 28.3147 0.0000
54.0725 28.3147 0.0000 56.5875 28.3147 0.0000 59.1025 28.3147 0.0000
61.6175 28.3147 0.0000 64.1325 28.3147 0.0000 66.6475 28.3147 0.0000
69.1625 28.3147 0.0000 71.6775 28.3147 0.0000 74.1925 28.3147 0.0000
76.7075 28.3147 0.0000 79.2225 28.3147 0.0000 81.7375 28.3147 0.0000
84.2525 28.3147 0.0000 86.7675 28.3147 0.0000 89.2825 28.3147 0.0000
17.6050 30.4928 0.0000 20.1200 30.4928 0.0000 22.6350 30.4928 0.0000
25.1500 30.4928 0.0000 27.6650 30.4928 0.0000 30.1800 30.4928 0.0000
32.6950 30.4928 0.0000 35.2100 30.4928 0.0000 37.7250 30.4928 0.0000
40.2400 30.4928 0.0000 42.7550 30.4928 0.0000 45.2700 30.4928 0.0000
47.7850 30.4928 0.0000 50.3000 30.4928 0.0000 52.8150 30.4928 0.0000
55.3300 30.4928 0.0000 57.8450 30.4928 0.0000 60.3600 30.4928 0.0000
62.8750 30.4928 0.0000 65.3900 30.4928 0.0000 67.9050 30.4928 0.0000
70.4200 30.4928 0.0000 72.9350 30.4928 0.0000 75.4500 30.4928 0.0000
77.9650 30.4928 0.0000 80.4800 30.4928 0.0000 82.9950 30.4928 0.0000
85.5100 30.4928 0.0000 88.0250 30.4928 0.0000 90.5400 30.4928 0.0000
18.8625 32.6708 0.0000 21.3775 32.6708 0.0000 23.8925 32.6708 0.0000
26.4075 32.6708 0.0000 28.9225 32.6708 0.0000 31.4375 32.6708 0.0000
33.9525 32.6708 0.0000 36.4675 32.6708 0.0000 38.9825 32.6708 0.0000
41.4975 32.6708 0.0000 44.0125 32.6708 0.0000 46.5275 32.6708 0.0000
49.0425 32.6708 0.0000 51.5575 32.6708 0.0000 54.0725 32.6708 0.0000
56.5875 32.6708 0.0000 59.1025 32.6708 0.0000 61.6175 32.6708 0.0000
64.1325 32.6708 0.0000 66.6475 32.6708 0.0000 69.1625 32.6708 0.0000
71.6775 32.6708 0.0000 74.1925 32.6708 0.0000 76.7075 32.6708 0.0000
79.2225 32.6708 0.0000 81.7375 32.6708 0.0000 84.2525 32.6708 0.0000
86.7675 32.6708 0.0000 89.2825 32.6708 0.0000 91.7975 32.6708 0.0000
20.1200 34.8489 0.0000 22.6350 34.8489 0.0000 25.1500 34.8489 0.0000
27.6650 34.8489 0.0000 30.1800 34.8489 0.0000 32.6950 34.8489 0.0000
35.2100 34.8489 0.0000 37.7250 34.8489 0.0000 40.2400 34.8489 0.0000
42.7550 34.8489 0.0000 45.2700 34.8489 0.0000 47.7850 34.8489 0.0000
50.3000 34.8489 0.0000 52.8150 34.8489 0.0000 55.3300 34.8489 0.0000
57.8450 34.8489 0.0000 60.3600 34.8489 0.0000 62.8750 34.8489 0.0000
65.3900 34.8489 0.0000 67.9050 34.8489 0.0000 70.4200 34.8489 0.0000
72.9350 34.8489 0.0000 75.4500 34.8489 0.0000 77.9650 34.8489 0.0000
80.4800 34.8489 0.0000 82.9950 34.8489 0.0000 85.5100 34.8489 0.0000
88.0250 34.8489 0.0000 90.5400 34.8489 0.0000 93.0550 34.8489 0.0000
21.3775 37.0269 0.0000 23.8925 37.0269 0.0000 26.4075 37.0269 0.0000
28.9225 37.0269 0.0000 31.4375 37.0269 0.0000 33.9525 37.0269 0.0000
36.4675 37.0269 0.0000 38.9825 37.0269 0.0000 41.4975 37.0269 0.0000
44.0125 37.0269 0.0000 46.5275 37.0269 0.0000 49.0425 37.0269 0.0000
51.5575 37.0269 0.0000 54.0725 37.0269 0.0000 56.5875 37.0269 0.0000
59.1025 37.0269 0.0000 61.6175 37.0269 0.0000 64.1325 37.0269 0.0000
66.6475 37.0269 0.0000 69.1625 37.0269 0.0000 71.6775 37.0269 0.0000
74.1925 37.0269 0.0000 76.7075 37.0269 0.0000 79.2225 37.0269 0.0000
81.7375 37.0269 0.0000 84.2525 37.0269 0.0000 86.7675 37.0269 0.0000
89.2825 37.0269 0.0000 91.7975 37.0269 0.0000 94.3125 37.0269 0.0000
22.6350 39.2050 0.0000 25.1500 39.2050 0.0000 27.6650 39.2050 0.0000
30.1800 39.2050 0.0000 32.6950 39.2050 0.0000 35.2100 39.2050 0.0000
37.7250 39.2050 0.0000 40.2400 39.2050 0.0000 42.7550 39.2050 0.0000
45.2700 39.2050 0.0000 47.7850 39.2050 0.0000 50.3000 39.2050 0.0000
52.8150 39.2050 0.0000 55.3300 39.2050 0.0000 57.8450 39.2050 0.0000
60.3600 39.2050 0.0000 62.8750 39.2050 0.0000 65.3900 39.2050 0.0000
67.9050 39.2050 0.0000 70.4200 39.2050 0.0000 72.9350 39.2050 0.0000
75.4500 39.2050 0.0000 77.9650 39.2050 0.0000 80.4800 39.2050 0.0000
82.9950 39.2050 0.0000 85.5100 39.2050 0.0000 88.0250 39.2050 0.0000
90.5400 39.2050 0.0000 93.0550 39.2050 0.0000 95.5700 39.2050 0.0000
23.8925 41.3830 0.0000 26.4075 41.3830 0.0000 28.9225 41.3830 0.0000
31.4375 41.3830 0.0000 33.9525 41.3830 0.0000 36.4675 41.3830 0.0000
38.9825 41.3830 0.0000 41.4975 41.3830 0.0000 44.0125 41.3830 0.0000
46.5275 41.3830 0.0000 49.0425 41.3830 0.0000 51.5575 41.3830 0.0000
54.0725 41.3830 0.0000 56.5875 41.3830 0.0000 59.1025 41.3830 0.0000
61.6175 41.3830 0.0000 64.1325 41.3830 0.0000 66.6475 41.3830 0.0000
69.1625 41.3830 0.0000 71.6775 41.3830 0.0000 74.1925 41.3830 0.0000
76.7075 41.3830 0.0000 79.2225 41.3830 0.0000 81.7375 41.3830 0.0000
84.2525 41.3830 0.0000 86.7675 41.3830 0.0000 89.2825 41.3830 0.0000
91.7975 41.3830 0.0000 94.3125 41.3830 0.0000 96.8275 41.3830 0.0000
25.1500 43.5611 0.0000 27.6650 43.5611 0.0000 30.1800 43.5611 0.0000
32.6950 43.5611 0.0000 35.2100 43.5611 0.0000 37.7250 43.5611 0.0000
40.2400 43.5611 0.0000 42.7550 43.5611 0.0000 45.2700 43.5611 0.0000
47.7850 43.5611 0.0000 50.3000 43.5611 0.0000 52.8150 43.5611 0.0000
55.3300 43.5611 0.0000 57.8450 43.5611 0.0000 60.3600 43.5611 0.0000
62.8750 43.5611 0.0000 65.3900 43.5611 0.0000 67.9050 43.5611 0.0000
70.4200 43.5611 0.0000 72.9350 43.5611 0.0000 75.4500 43.5611 0.0000
77.9650 43.5611 0.0000 80.4800 43.5611 0.0000 82.9950 43.5611 0.0000
85.5100 43.5611 0.0000 88.0250 43.5611 0.0000 90.5400 43.5611 0.0000
93.0550 43.5611 0.0000 95.5700 43.5611 0.0000 98.0850 43.5611 0.0000
26.4075 45.7391 0.0000 28.9225 45.7391 0.0000 31.4375 45.7391 0.0000
33.9525 45.7391 0.0000 36.4675 45.7391 0.0000 38.9825 45.7391 0.0000
41.4975 45.7391 0.0000 44.0125 45.7391 0.0000 46.5275 45.7391 0.0000
49.0425 45.7391 0.0000 51.5575 45.7391 0.0000 54.0725 45.7391 0.0000
56.5875 45.7391 0.0000 59.1025 45.7391 0.0000 61.6175 45.7391 0.0000
64.1325 45.7391 0.0000 66.6475 45.7391 0.0000 69.1625 45.7391 0.0000
71.6775 45.7391 0.0000 74.1925 45.7391 0.0000 76.7075 45.7391 0.0000
79.2225 45.7391 0.0000 81.7375 45.7391 0.0000 84.2525 45.7391 0.0000
86.7675 45.7391 0.0000 89.2825 45.7391 0.0000 91.7975 45.7391 0.0000
94.3125 45.7391 0.0000 96.8275 45.7391 0.0000 99.3425 45.7391 0.0000
27.6650 47.9172 0.0000 30.1800 47.9172 0.0000 32.6950 47.9172 0.0000
35.2100 47.9172 0.0000 37.7250 47.9172 0.0000 40.2400 47.9172 0.0000
42.7550 47.9172 0.0000 45.2700 47.9172 0.0000 47.7850 47.9172 0.0000
50.3000 47.9172 0.0000 52.8150 47.9172 0.0000 55.3300 47.9172 0.0000
57.8450 47.9172 0.0000 60.3600 47.9172 0.0000 62.8750 47.9172 0.0000
65.3900 47.9172 0.0000 67.9050 47.9172 0.0000 70.4200 47.9172 0.0000
72.9350 47.9172 0.0000 75.4500 47.9172 0.0000 77.9650 47.9172 0.0000
80.4800 47.9172 0.0000 82.9950 47.9172 0.0000 85.5100 47.9172 0.0000
88.0250 47.9172 0.0000 90.5400 47.9172 0.0000 93.0550 47.9172 0.0000
95.5700 47.9172 0.0000 98.0850 47.9172 0.0000 100.6000 47.9172 0.0000
28.9225 50.0952 0.0000 31.4375 50.0952 0.0000 33.9525 50.0952 0.0000
36.4675 50.0952 0.0000 38.9825 50.0952 0.0000 41.4975 50.0952 0.0000
44.0125 50.0952 0.0000 46.5275 50.0952 0.0000 49.0425 50.0952 0.0000
51.5575 50.0952 0.0000 54.0725 50.0952 0.0000 56.5875 50.0952 0.0000
59.1025 50.0952 0.0000 61.6175 50.0952 0.0000 64.1325 50.0952 0.0000
66.6475 50.0952 0.0000 69.1625 50.0952 0.0000 71.6775 50.0952 0.0000
74.1925 50.0952 0.0000 76.7075 50.0952 0.0000 79.2225 50.0952 0.0000
81.7375 50.0952 0.0000 84.2525 50.0952 0.0000 86.7675 50.0952 0.0000
89.2825 50.0952 0.0000 91.7975 50.0952 0.0000 94.3125 50.0952 0.0000
96.8275 50.0952 0.0000 99.3425 50.0952 0.0000 101.8575 50.0952 0.0000
30.1800 52.2733 0.0000 32.6950 52.2733 0.0000 35.2100 52.2733 0.0000
37.7250 52.2733 0.0000 40.2400 52.2733 0.0000 42.7550 52.2733 0.0000
45.2700 52.2733 0.0000 47.7850 52.2733 0.0000 50.3000 52.2733 0.0000
52.8150 52.2733 0.0000 55.3300 52.2733 0.0000 57.8450 52.2733 0.0000
60.3600 52.2733 0.0000 62.8750 52.2733 0.0000 65.3900 52.2733 0.0000
67.9050 52.2733 0.0000 70.4200 52.2733 0.0000 72.9350 52.2733 0.0000
75.4500 52.2733 0.0000 77.9650 52.2733 0.0000 80.4800 52.2733 0.0000
82.9950 52.2733 0.0000 85.5100 52.2733 0.0000 88.0250 52.2733 0.0000
90.5400 52.2733 0.0000 93.0550 52.2733 0.0000 95.5700 52.2733 0.0000
98.0850 52.2733 0.0000 100.6000 52.2733 0.0000 103.1150 52.2733 0.0000
31.4375 54.4513 0.0000 33.9525 54.4513 0.0000 36.4675 54.4513 0.0000
38.9825 54.4513 0.0000 41.4975 54.4513 0.0000 44.0125 54.4513 0.0000
46.5275 54.4513 0.0000 49.0425 54.4513 0.0000 51.5575 54.4513 0.0000
54.0725 54.4513 0.0000 56.5875 54.4513 0.0000 59.1025 54.4513 0.0000
61.6175 54.4513 0.0000 64.1325 54.4513 0.0000 66.6475 54.4513 0.0000
69.1625 54.4513 0.0000 71.6775 54.4513 0.0000 74.1925 54.4513 0.0000
76.7075 54.4513 0.0000 79.2225 54.4513 0.0000 81.7375 54.4513 0.0000
84.2525 54.4513 0.0000 86.7675 54.4513 0.0000 89.2825 54.4513 0.0000
91.7975 54.4513 0.0000 94.3125 54.4513 0.0000 96.8275 54.4513 0.0000
99.3425 54.4513 0.0000 101.8575 54.4513 0.0000 104.3725 54.4513 0.0000
32.6950 56.6294 0.0000 35.2100 56.6294 0.0000 37.7250 56.6294 0.0000
40.2400 56.6294 0.0000 42.7550 56.6294 0.0000 45.2700 56.6294 0.0000
47.7850 56.6294 0.0000 50.3000 56.6294 0.0000 52.8150 56.6294 0.0000
55.3300 56.6294 0.0000 57.8450 56.6294 0.0000 60.3600 56.6294 0.0000
62.8750 56.6294 0.0000 65.3900 56.6294 0.0000 67.9050 56.6294 0.0000
70.4200 56.6294 0.0000 72.9350 56.6294 0.0000 75.4500 56.6294 0.0000
77.9650 56.6294 0.0000 80.4800 56.6294 0.0000 82.9950 56.6294 0.0000
85.5100 56.6294 0.0000 88.0250 56.6294 0.0000 90.5400 56.6294 0.0000
93.0550 56.6294 0.0000 95.5700 56.6294 0.0000 98.0850 56.6294 0.0000
100.6000 56.6294 0.0000 103.1150 56.6294 0.0000 105.6300 56.6294 0.0000

POINT_DATA 810
SCALARS correlation_coefficient double
LOOKUP_TABLE default
-0.11133652027404906
-0.02137952409602819
0.06891348012841321
-0.0623514930456557
-0.06425035554475814
0.07354729011522089
0.010364416193558918
0.11155267734542278
-0.020485450315239753
0.017537825153954127
0.004815852348651235
-0.19310829972309734
0.05455149405674467
0.12030943477399332
0.24337735467066995
-0.008612503806157698
-0.059229410539229206
0.007034115818907437
-0.047882455498344335
0.07362348545404525
-0.11450902158542033
-0.03743857800414942
0.006209590741552468
-0.029921963574056847
-0.1539312061569418
-0.14563694224493834
-0.15991083153198998
-0.040981050733594294
-0.0490157623974509
0.14986117976868268
0.0050260940713608765
0.09002342803319012
0.09216342737387367
-0.05544925258179204
-0.0586672953611059
-0.05743515849501933
-0.05057274148687244
0.06901999700092618
-0.04460370493712016
0.12077274463424087
0.0335670044237183
-0.16216582622225242
-0.25120759639352913
-0.06935656773045738
0.13383781327213473
0.1694183456466699
-0.15605811227092295
-0.08144772821596616
-0.022347090999864015
-0.07120567186782144
0.062447817270183524
0.19363291461446783
0.03561915416850465
-0.01747519065570593
-0.02497587311978784
-0.20945409751448807
-0.09434672542304795
-0.12105311057520814
-0.11931595262448796
-0.06217436254714852
0.09160204453002396
0.017509347174120858
-0.04973297974681708
-0.08118003730965564
-0.06943177436705772
-0.04538389912205843
-0.04620731954910799
0.1385965642627732
-0.08581565285700306
0.03023324581267569
0.012131612601936036
-0.1788015621642999
0.026636790175947903
-0.16053875885551108
0.08615178547680201
0.11074395191748751
-0.13735659911794296
0.05422218830385717
-0.10391014038725367
-0.09893170585944493
0.14273891281330947
0.05266987111480994
-0.05564997188097269
-0.06992230818403168
-0.11147803827147364
0.02973348076530731
-0.058349565786887915
-0.12057085281843227
-0.1901900324542447
0.08822494651437597
-0.010693701670043168
-0.1016344578928647
0.0384173213092619
-0.12473016900953302
0.11754500806266446
0.1414461619871689
-0.09206181024222475
-0.048504757318075103
-0.19824303725292255
-0.10296951337548303
-0.18441513557747805
-0.011892354115089316
0.0017495092312504927
-0.26104327118471116
-0.34897767364657445
0.13131476662443875
0.01080445371318747
-0.05013187181580946
-0.0746397647276627
-0.022852414138664102
-0.12114394344873396
0.0007676608233764111
-0.08561999449822714
0.02141352256559524
0.030106120622159237
-0.0364269656277213
0.111377065260475
-0.03719495105441339
-0.17744267834715338
0.06704525501307391
0.05125522316838657
-0.06621883039284439
-0.012354649022732018
-0.0905866499506296
-0.09652278592225674
-0.11141032016490951
-0.06376440418263224
-0.023766867483477932
-0.2523241164650275
-0.02067331638951221
0.03887083559649224
-0.019571857122212787
0.04008269817195969
-0.05322511317448569
-0.2607758987699061
-0.026545452765814416
-0.0725644005772275
-0.1728602057478882
-0.22184457730530793
-0.15701227095556242
0.11319029642350963
0.08208363353000363
-0.002426153085322404
0.1570609236200728
0.14344011907378326
-0.049644536708511725
0.04272867973144907
0.048567700012881035
0.060067683765122094
0.08539917937556245
-0.013050154116256577
0.008183146220611432
0.09084945048425178
-0.23868984660351666
-0.04156541656900479
-0.10350962984369816
0.09348865928543816
0.02831303007375005
-0.040652248707064124
0.0048595343965962155
-0.2116055380341183
0.04452339514591949
0.008184460815317375
-0.14657670032122433
-0.08340737078626663
0.06331831065715342
-0.13418695039269368
-0.17647478888690055
-0.01965627104260612
-0.03838282559795449
-0.11404210335533782
0.17174785980530508
0.09534714963404912
0.09763599650112754
0.033492451077414206
0.11676144310316837
0.1133145219502394
0.21498314170534427
0.020356917230831415
-0.23556043244632763
0.10495024618467083
0.001488732612046677
0.1719092290525407
0.2970060380505709
-0.05413020136169157
-0.08859243150343726
0.05103278403951781
0.24680157464419913
0.007442351802957646
0.32411318570080694
0.051461170068846165
-0.04254277459315766
0.1149409214274971
-0.0010061863432159707
0.0114952163530927
0.09053374199823758
0.1163598927440988
0.19620902302415363
-0.03213830255800342
-0.00909693055764607
0.10449976696448247
0.012849761141359184
0.10007066124489879
-0.04175176253411872
-0.24201130824299508
-0.12938363085611101
-0.04362537599324309
0.0014446738639712488
0.05917760604131174
-0.1372732462791073
0.22062614316721693
-0.09016365292082705
0.18203698286612702
0.17863455863220137
0.0586827679765638
-0.25405187367732895
-0.06485069166345173
0.037376942686729
-0.052546853411805594
0.16748737861915725
0.06970270536354824
0.2438912105674427
0.23980645486934335
0.028835192219245055
-0.22927449826530324
0.20729708438766128
0.25975478957366066
0.06711912167342371
-0.3768450105084671
0.0004595718429347039
-0.05640719894156679
-0.1294047442403399
-0.05726348401531614
0.04297135836342062
-0.22607873473440956
-0.01067378580791215
0.18596009191620927
-0.04088417374775929
0.1712151751853697
-0.09981994462612674
0.043048629464018696
0.11254721647300106
-0.2081292100962904
0.08877654445752313
-0.09278814497013534
-0.24472282505408532
-0.3256514863366816
0.035061998763577
-0.2964319199583146
-0.21994849354317408
0.10578895759608456
0.19213931158800168
0.14881271427520407
-0.23967616417000528
0.03423001587696128
-0.31186484089525013
0.11186860421057333
0.06016161365670407
0.008764822232166666
-0.03903293513981497
0.01221491549617174
-0.23854711500067768
-0.09042485332327464
0.11655245495100178
0.060722968474515415
0.02637444511919929
-0.05085283453581982
0.04558772313443479
0.10660290440988607
-0.1893971280812532
-0.07258602326474828
-0.15491160182193045
-0.2943482171206551
0.049337299468092566
0.07311568580388436
-0.03239728509047329
-0.10495218776086596
-0.0963470857581623
-0.19467447011620725
0.04603028308441399
-0.37649812610344274
-0.17477312989808408
-0.17578692783346347
0.09238210541922658
-0.5391675086549401
-0.7881805796451044
-0.35015972353964164
-0.07878851859276631
0.042537787390095255
0.2533594188872644
-0.0024841024389205286
-0.22073670066275866
-0.13548849846299363
0.2406809970861959
0.18281075274874328
-0.05187099640111722
0.0701322628451334
-0.19486624324459792
0.05577952321238921
-0.02559983922688112
-0.01866757631034223
0.04885949656581444
-0.05600316145217915
0.02108809285844738
0.20842777763355097
0.16642461747664292
-0.013839101922139616
-0.03979968145224493
-0.0875823951004244
0.13464237604624127
-0.23514862752798754
-0.09945849619007857
-0.0060841191082517
0.004220987291767199
-0.2511354558053227
-4.335405035226921
-3.398098979118826
0.852505606197891
0.05827581605205715
0.23399420333712612
-0.01460648843252725
-0.1262725102437867
-0.016842253782138685
0.0026742497251120217
-0.14200516700977114
0.03924779553257999
0.20524222385166058
0.03480757649455782
0.08663976123592763
-0.1171621733652522
0.14034485569439167
-0.07880532004626506
-0.0695162380492232
0.052551293281482725
-0.11568645338252916
0.07967253479327026
0.27753927718527716
-0.1889193475455137
-0.34418713066418133
0.017321869071591223
-0.005328775820102739
-0.06509317465805486
-0.44540749100217847
1.6985906634608536
-1.223533750556481
-9.387213579034878
-0.2818655461174594
0.05362859285972785
-0.18415225653297837
0.1267858725891302
-0.00715087215543285
-0.19952549040985318
-0.0629396946603254
-0.011612752677518537
-0.0013336671410813937
-0.1417832798126957
0.2221213191214233
0.06339211527645824
-0.08075999792222974
-0.2869545242117334
0.11976211759151299
-0.15999218310268318
0.09755925788261008
-0.06014895975048933
-0.07444985090731367
-0.21521476290330305
-0.08569015688879686
0.03947442364633302
-0.09849838150971692
0.020363526197497234
0.11377257974051841
-0.06725828900302148
-0.005889650061671804
1.7941593717553324
6.262866140259419
0.1503237291616619
-1.1998103969424359
0.1388915505498643
-0.18920277219761342
-0.06829185561352934
0.26031729067338705
-0.12783628606607728
0.1074990988737739
0.09921933860915755
-0.053329649867393566
-0.32850331972799507
-0.006787448311092584
-0.07541557648213211
0.1497528555839101
-0.08037103979449
0.28123061648044223
0.3161376856877113
-0.14102574140152724
-0.09674818074362712
-0.0968045471150641
-0.19626171668625228
0.003939481710075793
0.15344021883809628
0.12405901109696948
0.09252787533987719
0.10729250516376712
0.4918719945799135
-1.9001478272335512
2.660904154729355
46.87751605450769
2.660904154729355
-1.9001478272335512
0.4918719945799135
0.10729250516376712
0.09252787533987719
0.12405901109696948
0.15344021883809628
0.003939481710075793
-0.19626171668625228
-0.0968045471150641
-0.09674818074362712
-0.14102574140152724
0.3161376856877113
0.28123061648044223
0.0021622502249821467
0.1497528555839101
-0.07541557648213211
-0.006787448311092584
-0.32850331972799507
-0.053329649867393566
0.09921933860915755
0.1074990988737739
-0.12783628606607728
0.26031729067338705
-0.06829185561352934
-0.18920277219761342
0.1388915505498643
-1.1998103969424359
0.1503237291616619
6.262866140259419
1.7941593717553324
-0.005889650061671804
-0.06725828900302148
0.11377257974051841
0.020363526197497234
-0.09849838150971692
0.03947442364633302
-0.08569015688879686
-0.21521476290330305
-0.07444985090731367
-0.06014895975048933
0.09755925788261008
-0.15999218310268318
0.11976211759151299
-0.06766888713134664
-0.08075999792222974
0.06339211527645824
0.2221213191214233
-0.1417832798126957
-0.0013336671410813937
-0.011612752677518537
-0.0629396946603254
-0.19952549040985318
-0.00715087215543285
0.1267858725891302
-0.18415225653297837
0.05362859285972785
-0.2818655461174594
-9.387213579034878
-1.223533750556481
1.6985906634608536
-0.44540749100217847
-0.06509317465805486
-0.005328775820102739
0.017321869071591223
-0.34418713066418133
-0.1889193475455137
0.27753927718527716
0.07967253479327026
-0.11568645338252916
0.052551293281482725
-0.0695162380492232
-0.07880532004626506
0.14034485569439167
0.02367853680027092
0.08663976123592763
0.03480757649455782
0.20524222385166058
0.03924779553257999
-0.14200516700977114
0.0026742497251120217
-0.016842253782138685
-0.1262725102437867
-0.01460648843252725
0.23399420333712612
0.05827581605205715
0.852505606197891
-3.398098979118826
-4.335405035226921
-0.2511354558053227
0.004220987291767199
-0.0060841191082517
-0.09945849619007857
-0.23514862752798754
0.13464237604624127
-0.0875823951004244
-0.03979968145224493
-0.013839101922139616
0.16642461747664292
0.20842777763355097
0.02108809285844738
-0.05600316145217915
0.04885949656581444
-0.01866757631034223
0.07798756294591142
0.05577952321238921
-0.19486624324459792
0.0701322628451334
-0.05187099640111722
0.18281075274874328
0.2406809970861959
-0.13548849846299363
-0.22073670066275866
-0.0024841024389205286
0.2533594188872644
0.042537787390095255
-0.07878851859276631
-0.35015972353964164
-0.7881805796451044
-0.5391675086549401
0.09238210541922658
-0.17578692783346347
-0.17477312989808408
-0.37649812610344274
0.04603028308441399
-0.19467447011620725
-0.0963470857581623
-0.10495218776086596
-0.03239728509047329
0.07311568580388436
0.049337299468092566
-0.2943482171206551
-0.15491160182193045
-0.07258602326474828
0.04554459289649892
0.10660290440988607
0.04558772313443479
-0.05085283453581982
0.02637444511919929
0.060722968474515415
0.11655245495100178
-0.09042485332327464
-0.23854711500067768
0.01221491549617174
-0.03903293513981497
0.008764822232166666
0.06016161365670407
0.11186860421057333
-0.31186484089525013
0.03423001587696128
-0.23967616417000528
0.14881271427520407
0.19213931158800168
0.10578895759608456
-0.21994849354317408
-0.2964319199583146
0.035061998763577
-0.3256514863366816
-0.24472282505408532
-0.09278814497013534
0.08877654445752313
-0.2081292100962904
0.11254721647300106
0.043048629464018696
-0.10034798180259473
0.1712151751853697
-0.04088417374775929
0.18596009191620927
-0.01067378580791215
-0.22607873473440956
0.04297135836342062
-0.05726348401531614
-0.1294047442403399
-0.05640719894156679
0.0004595718429347039
-0.3768450105084671
0.06711912167342371
0.25975478957366066
0.20729708438766128
-0.22927449826530324
0.028835192219245055
0.23980645486934335
0.2438912105674427
0.06970270536354824
0.16748737861915725
-0.052546853411805594
0.037376942686729
-0.06485069166345173
-0.25405187367732895
0.0586827679765638
0.17863455863220137
0.18203698286612702
-0.09016365292082705
0.22062614316721693
-0.01577570440255257
0.05917760604131174
0.0014446738639712488
-0.04362537599324309
-0.12938363085611101
-0.24201130824299508
-0.04175176253411872
0.10007066124489879
0.012849761141359184
0.10449976696448247
-0.00909693055764607
-0.03213830255800342
0.19620902302415363
0.1163598927440988
0.09053374199823758
0.0114952163530927
-0.0010061863432159707
0.1149409214274971
-0.04254277459315766
0.051461170068846165
0.32411318570080694
0.007442351802957646
0.24680157464419913
0.05103278403951781
-0.08859243150343726
-0.05413020136169157
0.2970060380505709
0.1719092290525407
0.001488732612046677
0.10495024618467083
0.035667550786369795
0.020356917230831415
0.21498314170534427
0.1133145219502394
0.11676144310316837
0.033492451077414206
0.09763599650112754
0.09534714963404912
0.17174785980530508
-0.11404210335533782
-0.03838282559795449
-0.01965627104260612
-0.17647478888690055
-0.13418695039269368
0.06331831065715342
-0.08340737078626663
-0.14657670032122433
0.008184460815317375
0.04452339514591949
-0.2116055380341183
0.0048595343965962155
-0.040652248707064124
0.02831303007375005
0.09348865928543816
-0.10350962984369816
-0.04156541656900479
-0.23868984660351666
0.09084945048425178
0.008183146220611432
-0.013050154116256577
-0.07732504013131801
0.060067683765122094
0.048567700012881035
0.04272867973144907
-0.049644536708511725
0.14344011907378326
0.1570609236200728
-0.002426153085322404
0.08208363353000363
0.11319029642350963
-0.15701227095556242
-0.22184457730530793
-0.1728602057478882
-0.0725644005772275
-0.026545452765814416
-0.2607758987699061
-0.05322511317448569
0.04008269817195969
-0.019571857122212787
0.03887083559649224
-0.02067331638951221
-0.2523241164650275
-0.023766867483477932
-0.06376440418263224
-0.11141032016490951
-0.09652278592225674
-0.0905866499506296
-0.012354649022732018
-0.06621883039284439
0.05125522316838657
-0.25928425199129046
-0.17744267834715338
-0.03719495105441339
0.111377065260475
-0.0364269656277213
0.030106120622159237
0.02141352256559524
-0.08561999449822714
0.0007676608233764111
-0.12114394344873396
-0.022852414138664102
-0.0746397647276627
-0.05013187181580946
0.01080445371318747
0.13131476662443875
-0.34897767364657445
-0.26104327118471116
0.0017495092312504927
-0.011892354115089316
-0.18441513557747805
-0.10296951337548303
-0.19824303725292255
-0.048504757318075103
-0.09206181024222475
0.1414461619871689
0.11754500806266446
-0.12473016900953302
0.0384173213092619
-0.1016344578928647
-0.010693701670043168
-0.08624375922693538
-0.1901900324542447
-0.12057085281843227
-0.058349565786887915
0.02973348076530731
-0.11147803827147364
-0.06992230818403168
-0.05564997188097269
0.05266987111480994
0.14273891281330947
-0.09893170585944493
-0.10391014038725367
0.05422218830385717
-0.13735659911794296
0.11074395191748751
0.08615178547680201
-0.16053875885551108
0.026636790175947903
-0.1788015621642999
0.012131612601936036
0.03023324581267569
-0.08581565285700306
0.1385965642627732
-0.04620731954910799
-0.04538389912205843
-0.06943177436705772
-0.08118003730965564
-0.04973297974681708
0.017509347174120858
0.09160204453002396
0.03239770405447967
-0.11931595262448796
-0.12105311057520814
-0.09434672542304795
-0.20945409751448807
-0.02497587311978784
-0.01747519065570593
0.03561915416850465
0.19363291461446783
0.062447817270183524
-0.07120567186782144
-0.022347090999864015
-0.08144772821596616
-0.15605811227092295
0.1694183456466699
0.13383781327213473
-0.06935656773045738
-0.25120759639352913
-0.16216582622225242
0.0335670044237183
0.12077274463424087
-0.04460370493712016
0.06901999700092618
-0.05057274148687244
-0.05743515849501933
-0.0586672953611059
-0.05544925258179204
0.09216342737387367
0.09002342803319012
0.0050260940713608765
-0.00035830489566379854
-0.0490157623974509
-0.040981050733594294
-0.15991083153198998
-0.14563694224493834
-0.1539312061569418
-0.029921963574056847
0.006209590741552468
-0.03743857800414942
-0.11450902158542033
0.07362348545404525
-0.047882455498344335
0.007034115818907437
-0.059229410539229206
-0.008612503806157698
0.24337735467066995
0.12030943477399332
0.05455149405674467
-0.19310829972309734
0.004815852348651235
0.017537825153954127
-0.020485450315239753
0.11155267734542278
0.010364416193558918
0.07354729011522089
-0.06425035554475814
-0.0623514930456557
0.06891348012841321
-0.02137952409602819
-0.11133652027404906
-0.05858437086556408

VECTORS lattice_basis1 double
79.019 0 0
VECTORS lattice_basis2 double
35.73566792095205 61.8959924814982 0